<svg xmlns="http://www.w3.org/2000/svg" xmlns:xlink="http://www.w3.org/1999/xlink" xml:lang="en" height="163.99999999999994pt" width="509.402pt" viewBox="-29.122 -71.19999999999999 509.402 163.99999999999994"><circle cx="86.4" cy="-0" r="18" style="stroke:black;fill:none;stroke-width:2.0;stroke-dasharray:-;" /><circle cx="216" cy="-0" r="18" style="stroke:black;fill:none;stroke-width:2.0;stroke-dasharray:-;" /><path d="M 0.0,-0.0 L 34.2,-0 L 59.4,-0" style="stroke:black;fill:none;stroke-width:2.0;stroke-dasharray:-;stroke-linecap:round;stroke-linejoin:round;" /><path d="M 66.4 0 L 59.4 2.7 L 59.4 -2.7 Z" style="stroke:black;fill:black;stroke-linecap:butt;stroke-linejoin:miter;" /><path d="M 86.39999999999999,-7.2 L 86.4,7.2" style="stroke:black;fill:none;stroke-width:2.0;stroke-dasharray:-;stroke-linecap:round;stroke-linejoin:round;" /><path d="M 79.19999999999999,-0.0 L 93.6,-0" style="stroke:black;fill:none;stroke-width:2.0;stroke-dasharray:-;stroke-linecap:round;stroke-linejoin:round;" /><path d="M 104.39999999999999,-0.0 L 118.8,-0 L 124.2,-0" style="stroke:black;fill:none;stroke-width:2.0;stroke-dasharray:-;stroke-linecap:round;stroke-linejoin:round;" /><path d="M 131.2 0 L 124.2 2.7 L 124.2 -2.7 Z" style="stroke:black;fill:black;stroke-linecap:butt;stroke-linejoin:miter;" /><path d="M 133.20000000000002,-0.0 L 133.2,-18 L 176.4,-18 L 176.4,18 L 133.2,18 L 133.2,-0" style="stroke:black;fill:none;stroke-width:2.0;stroke-dasharray:-;stroke-linecap:round;stroke-linejoin:round;" /><path d="M 176.4,-0.0 L 187.2,-0 L 198,-0" style="stroke:black;fill:none;stroke-width:2.0;stroke-dasharray:-;stroke-linecap:round;stroke-linejoin:round;" /><path d="M 216.0,-7.2 L 216,7.2" style="stroke:black;fill:none;stroke-width:2.0;stroke-dasharray:-;stroke-linecap:round;stroke-linejoin:round;" /><path d="M 208.79999999999998,-0.0 L 223.2,-0" style="stroke:black;fill:none;stroke-width:2.0;stroke-dasharray:-;stroke-linecap:round;stroke-linejoin:round;" /><path d="M 234.0,-0.0 L 244.8,-0 L 246.6,-0" style="stroke:black;fill:none;stroke-width:2.0;stroke-dasharray:-;stroke-linecap:round;stroke-linejoin:round;" /><path d="M 253.6 0 L 246.6 2.7 L 246.6 -2.7 Z" style="stroke:black;fill:black;stroke-linecap:butt;stroke-linejoin:miter;" /><path d="M 255.6,-0.0 L 255.6,-18 L 320.4,-18 L 320.4,18 L 255.6,18 L 255.6,-0" style="stroke:black;fill:none;stroke-width:2.0;stroke-dasharray:-;stroke-linecap:round;stroke-linejoin:round;" /><path d="M 320.40000000000003,-0.0 L 329.4,-0 L 338.4,-0" style="stroke:black;fill:none;stroke-width:2.0;stroke-dasharray:-;stroke-linecap:round;stroke-linejoin:round;" /><path d="M 338.40000000000003,-0.0 L 347.4,-0 L 347.4,-0" style="stroke:black;fill:none;stroke-width:2.0;stroke-dasharray:-;stroke-linecap:round;stroke-linejoin:round;" /><path d="M 354.4 0 L 347.4 2.7 L 347.4 -2.7 Z" style="stroke:black;fill:black;stroke-linecap:butt;stroke-linejoin:miter;" /><path d="M 356.40000000000003,-0.0 L 356.4,-18 L 399.6,-18 L 399.6,18 L 356.4,18 L 356.4,-0" style="stroke:black;fill:none;stroke-width:2.0;stroke-dasharray:-;stroke-linecap:round;stroke-linejoin:round;" /><path d="M 399.59999999999997,-0.0 L 408.6,-0 L 417.6,-0" style="stroke:black;fill:none;stroke-width:2.0;stroke-dasharray:-;stroke-linecap:round;stroke-linejoin:round;" /><path d="M 417.59999999999997,-0.0 L 435.6,-0 L 444.6,-0" style="stroke:black;fill:none;stroke-width:2.0;stroke-dasharray:-;stroke-linecap:round;stroke-linejoin:round;" /><path d="M 451.6 0 L 444.6 2.7 L 444.6 -2.7 Z" style="stroke:black;fill:black;stroke-linecap:butt;stroke-linejoin:miter;" /><path d="M 338.40000000000003,-0.0 L 338.4,-25.2 L 338.4,-50.4" style="stroke:black;fill:none;stroke-width:2.0;stroke-dasharray:-;stroke-linecap:round;stroke-linejoin:round;" /><path d="M 338.40000000000003,-50.4 L 329.4,-50.4 L 320.4,-50.4" style="stroke:black;fill:none;stroke-width:2.0;stroke-dasharray:-;stroke-linecap:round;stroke-linejoin:round;" /><path d="M 280.8,-50.4 L 280.8,-66.6 L 320.4,-66.6 L 320.4,-34.2 L 280.8,-34.2 L 280.8,-50.4" style="stroke:black;fill:none;stroke-width:2.0;stroke-dasharray:-;stroke-linecap:round;stroke-linejoin:round;" /><path d="M 280.8,-50.4 L 248.4,-50.4 L 216,-50.4" style="stroke:black;fill:none;stroke-width:2.0;stroke-dasharray:-;stroke-linecap:round;stroke-linejoin:round;" /><path d="M 216.0,-50.400000000000006 L 216,-34.2 L 216,-27" style="stroke:black;fill:none;stroke-width:2.0;stroke-dasharray:-;stroke-linecap:round;stroke-linejoin:round;" /><path d="M 216 -20 L 213.3 -27 L 218.7 -27 Z" style="stroke:black;fill:black;stroke-linecap:butt;stroke-linejoin:miter;" /><path d="M 417.59999999999997,-0.0 L 417.6,41.4 L 417.6,82.8" style="stroke:black;fill:none;stroke-width:2.0;stroke-dasharray:-;stroke-linecap:round;stroke-linejoin:round;" /><path d="M 417.59999999999997,82.8 L 252,82.8 L 86.4,82.8" style="stroke:black;fill:none;stroke-width:2.0;stroke-dasharray:-;stroke-linecap:round;stroke-linejoin:round;" /><path d="M 86.4,82.79999999999994 L 86.4,50.4 L 86.4,27" style="stroke:black;fill:none;stroke-width:2.0;stroke-dasharray:-;stroke-linecap:round;stroke-linejoin:round;" /><path d="M 86.4 20 L 89.1 27 L 83.7 27 Z" style="stroke:black;fill:black;stroke-linecap:butt;stroke-linejoin:miter;" /><text x="-3.600000000000003" y="-11.0" dominant-baseline="central" fill="black" font-size="11" font-family="sans" text-anchor="end"><tspan x="-3.600000000000003" dy="11">R(s)</tspan></text><text x="64.8" y="-20.0" dominant-baseline="central" fill="black" font-size="11" font-family="sans" text-anchor="end"><tspan x="64.8" dy="11">+</tspan></text><text x="77.39999999999999" y="10.599999999999998" dominant-baseline="hanging" fill="black" font-size="11" font-family="sans" text-anchor="middle"><tspan x="77.39999999999999" dy="11">−</tspan></text><text x="118.8" y="-20.0" dominant-baseline="ideographic" fill="black" font-size="11" font-family="sans" text-anchor="middle"><tspan x="118.8" dy="11">E(s)</tspan></text><text x="154.79999999999998" y="-11.0" dominant-baseline="central" fill="black" font-size="11" font-family="sans" text-anchor="middle"><tspan x="154.79999999999998" dy="11">K<tspan baseline-shift="-2" font-size="smaller">p</tspan></tspan></text><text x="194.4" y="-20.0" dominant-baseline="central" fill="black" font-size="11" font-family="sans" text-anchor="end"><tspan x="194.4" dy="11">+</tspan></text><text x="207.0" y="10.599999999999998" dominant-baseline="hanging" fill="black" font-size="11" font-family="sans" text-anchor="middle"><tspan x="207.0" dy="11">−</tspan></text><text x="288.0" y="-11.0" dominant-baseline="central" fill="black" font-size="11" font-family="sans" text-anchor="middle"><tspan x="288.0" dy="11">1/(s+3)</tspan></text><text x="347.40000000000003" y="-20.0" dominant-baseline="ideographic" fill="black" font-size="11" font-family="sans" text-anchor="middle"><tspan x="347.40000000000003" dy="11">Ω(s)</tspan></text><text x="378.0" y="-11.0" dominant-baseline="central" fill="black" font-size="11" font-family="sans" text-anchor="middle"><tspan x="378.0" dy="11">1/s</tspan></text><text x="457.2" y="-11.0" dominant-baseline="central" fill="black" font-size="11" font-family="sans" text-anchor="start"><tspan x="457.2" dy="11">Θ(s)</tspan></text><text x="300.59999999999997" y="-61.4" dominant-baseline="central" fill="black" font-size="11" font-family="sans" text-anchor="middle"><tspan x="300.59999999999997" dy="11">K<tspan baseline-shift="-2" font-size="smaller">t</tspan></tspan></text><circle cx="338.4" cy="-0" r="2.7" style="stroke:black;fill:black;stroke-width:2.0;stroke-dasharray:-;" /><circle cx="417.6" cy="-0" r="2.7" style="stroke:black;fill:black;stroke-width:2.0;stroke-dasharray:-;" /></svg>